<?xml version="1.0" standalone="no"?>
<!DOCTYPE svg PUBLIC "-//W3C//DTD SVG 20010904//EN"
 "http://www.w3.org/TR/2001/REC-SVG-20010904/DTD/svg10.dtd">
<svg version="1.0" xmlns="http://www.w3.org/2000/svg"
 width="700.000000pt" height="700.000000pt" viewBox="0 0 700.000000 700.000000"
 preserveAspectRatio="xMidYMid meet">
<metadata>
Created by potrace 1.14, written by Peter Selinger 2001-2017
</metadata>
<g transform="translate(0.000000,700.000000) scale(0.100000,-0.100000)"
fill="#000000" stroke="none">
<path d="M829 6506 c-2 -2 -36 -6 -75 -9 -127 -11 -184 -52 -184 -133 0 -84
50 -132 147 -140 158 -12 167 -13 248 -30 81 -16 174 -57 212 -93 27 -25 94
-165 130 -270 l26 -76 4 -570 c5 -897 7 -2305 3 -2590 -2 -143 0 -348 5 -455
11 -244 12 -541 2 -640 -27 -274 -147 -506 -297 -574 -30 -13 -119 -39 -198
-56 -169 -37 -219 -56 -255 -100 -21 -24 -27 -42 -27 -76 0 -68 23 -104 82
-128 42 -18 262 -12 668 19 360 27 859 27 1195 0 28 -2 93 -7 145 -10 52 -3
136 -8 185 -11 206 -13 446 -11 508 3 60 14 114 40 135 66 21 26 22 82 1 116
-19 32 -95 74 -156 86 -60 12 -191 34 -238 40 -187 23 -341 72 -375 119 -14
19 -55 112 -58 129 0 4 -6 31 -11 60 -17 80 -19 90 -26 148 -3 30 -8 65 -10
79 -3 24 -13 157 -21 304 -10 161 -2 1621 8 1632 4 3 78 5 165 4 482 -7 929 0
1073 15 19 2 76 6 125 10 50 4 92 8 95 10 3 1 36 6 73 10 37 3 78 8 90 11 12
2 49 9 82 14 98 16 115 20 225 46 266 65 499 160 683 279 53 33 180 159 253
250 160 198 261 396 324 638 37 140 45 207 44 377 0 167 -8 227 -48 365 -71
243 -194 441 -384 620 -257 241 -617 385 -1142 456 -41 6 -86 12 -100 14 -26
4 -123 12 -225 20 -264 21 -759 24 -1580 9 -770 -13 -1484 -8 -1515 11 -4 2
-9 3 -11 1z m2576 -440 c22 -3 58 -9 80 -12 169 -24 370 -106 501 -204 51 -38
51 -38 62 -17 6 12 12 28 14 35 2 8 18 -1 42 -25 158 -158 249 -459 246 -823
0 -85 -2 -168 -5 -185 -2 -16 -7 -55 -10 -85 -4 -30 -9 -63 -11 -75 -64 -338
-170 -578 -312 -705 -217 -196 -548 -342 -847 -375 -33 -4 -71 -9 -85 -11 -14
-3 -134 -8 -267 -11 l-243 -6 0 1226 0 1225 38 6 c20 3 55 9 77 11 22 3 51 8
65 10 14 2 54 7 90 10 36 4 97 10 135 13 83 9 373 7 430 -2z"/>
<path d="M4456 3213 c-2 -2 -12 -5 -23 -8 -11 -2 -63 -12 -114 -24 -52 -11
-116 -23 -144 -27 -27 -3 -52 -7 -55 -9 -3 -2 -29 -6 -59 -10 -30 -4 -61 -8
-70 -10 -9 -1 -45 -6 -81 -10 -173 -20 -330 -32 -423 -34 l-49 -1 52 -57 c124
-139 237 -351 315 -588 25 -77 48 -153 51 -170 3 -16 11 -55 19 -85 8 -30 23
-104 34 -165 26 -143 32 -182 47 -300 3 -27 7 -52 9 -55 2 -3 6 -34 9 -70 4
-36 8 -75 10 -87 3 -12 7 -48 11 -80 8 -72 20 -161 31 -228 2 -11 10 -65 19
-120 53 -336 142 -556 253 -630 42 -27 -11 -24 632 -40 91 -2 296 -7 455 -11
160 -5 407 -8 550 -9 284 0 342 8 403 60 57 48 45 133 -24 175 -31 20 -54 25
-214 49 -86 13 -95 15 -165 42 -155 58 -298 179 -409 347 -109 165 -173 319
-291 707 -37 121 -85 274 -107 340 -141 417 -332 730 -582 952 -59 52 -59 53
-58 106 0 40 -3 54 -14 54 -8 0 -16 -2 -18 -4z"/>
</g>
</svg>
